<svg width="4" height="4" viewBox="0 0 4 4" fill="none" xmlns="http://www.w3.org/2000/svg">
<circle cx="2" cy="2" r="2" fill="#D9D9D9"/>
<path d="M1.81 2.80001V2.62223H2.53V1.99112C2.53 1.81779 2.46887 1.67075 2.34662 1.55001C2.22437 1.42927 2.0755 1.3689 1.9 1.3689C1.7245 1.3689 1.57562 1.42927 1.45337 1.55001C1.33112 1.67075 1.27 1.81779 1.27 1.99112V2.53335H1.18C1.1305 2.53335 1.08812 2.51594 1.05287 2.48112C1.01762 2.44631 1 2.40446 1 2.35557V2.17779C1 2.14668 1.00787 2.11742 1.02362 2.09001C1.03937 2.0626 1.0615 2.04075 1.09 2.02446L1.09675 1.90668C1.10875 1.80594 1.13837 1.7126 1.18562 1.62668C1.23287 1.54075 1.29212 1.46594 1.36337 1.40223C1.43462 1.33853 1.51637 1.2889 1.60862 1.25335C1.70087 1.21779 1.798 1.20001 1.9 1.20001C2.002 1.20001 2.09875 1.21779 2.19025 1.25335C2.28175 1.2889 2.3635 1.33816 2.4355 1.40112C2.5075 1.46409 2.56675 1.53853 2.61325 1.62446C2.65975 1.71038 2.68975 1.80372 2.70325 1.90446L2.71 2.02001C2.7385 2.03335 2.76062 2.05335 2.77637 2.08001C2.79212 2.10668 2.8 2.13483 2.8 2.16446V2.3689C2.8 2.39853 2.79212 2.42668 2.77637 2.45335C2.76062 2.48001 2.7385 2.50001 2.71 2.51335V2.62223C2.71 2.67112 2.69237 2.71298 2.65712 2.74779C2.62187 2.7826 2.5795 2.80001 2.53 2.80001H1.81ZM1.63 2.17779C1.6045 2.17779 1.58312 2.16927 1.56587 2.15223C1.54862 2.1352 1.54 2.11409 1.54 2.0889C1.54 2.06372 1.54862 2.0426 1.56587 2.02557C1.58312 2.00853 1.6045 2.00001 1.63 2.00001C1.6555 2.00001 1.67687 2.00853 1.69412 2.02557C1.71137 2.0426 1.72 2.06372 1.72 2.0889C1.72 2.11409 1.71137 2.1352 1.69412 2.15223C1.67687 2.16927 1.6555 2.17779 1.63 2.17779ZM2.17 2.17779C2.1445 2.17779 2.12312 2.16927 2.10587 2.15223C2.08862 2.1352 2.08 2.11409 2.08 2.0889C2.08 2.06372 2.08862 2.0426 2.10587 2.02557C2.12312 2.00853 2.1445 2.00001 2.17 2.00001C2.1955 2.00001 2.21687 2.00853 2.23412 2.02557C2.25137 2.0426 2.26 2.06372 2.26 2.0889C2.26 2.11409 2.25137 2.1352 2.23412 2.15223C2.21687 2.16927 2.1955 2.17779 2.17 2.17779ZM1.36225 2.04001C1.35175 1.88298 1.39975 1.74816 1.50625 1.63557C1.61275 1.52298 1.7455 1.46668 1.9045 1.46668C2.038 1.46668 2.15537 1.50853 2.25662 1.59223C2.35787 1.67594 2.419 1.78298 2.44 1.91335C2.3035 1.91186 2.17787 1.87557 2.06312 1.80446C1.94837 1.73335 1.86025 1.63705 1.79875 1.51557C1.77475 1.63409 1.72412 1.73964 1.64687 1.83223C1.56962 1.92483 1.47475 1.99409 1.36225 2.04001Z" fill="black"/>
</svg>
